# xmcd
#
# Track frame offsets:
#	151
#	18908
#	34731
#	44572
#	61401
#	82026
#	99909
#	111280
#	124631
#	140312
#	154121
#	171378
#	194559
#	214680
#	225109
#	244324
#
# Disc length: 3495 seconds
#
# Revision: 0
# Processed by: cddbd v1.4PL0 Copyright (c) Steve Scherf et al.
# Submitted via: dBpowerAMP V4.0
#
DISCID=d60da510
DTITLE=Charles Gold - 22 Carat Gold
DYEAR=1900
DGENRE=
TTITLE0=Lady In Red
TTITLE1=Unchained Melody
TTITLE2=I Believe
TTITLE3=I Swear
TTITLE4=When The Going Gets Tough
TTITLE5=You Sexy Thing
TTITLE6=Hold Back The Night
TTITLE7=Sugar Pie Honey Bunch
TTITLE8=Moving On Up
TTITLE9=How Sweet It Is
TTITLE10=Midnight Train To Georgia
TTITLE11=New Kid In Town
TTITLE12=No Matter What
TTITLE13=Take These Chains
TTITLE14=I Can't Stop Loving You
TTITLE15=The Wind Beneath My Wings
EXTD=
EXTT0=
EXTT1=
EXTT2=
EXTT3=
EXTT4=
EXTT5=
EXTT6=
EXTT7=
EXTT8=
EXTT9=
EXTT10=
EXTT11=
EXTT12=
EXTT13=
EXTT14=
EXTT15=
PLAYORDER=
